<svg xmlns="http://www.w3.org/2000/svg" version="1.1" xmlns:xlink="http://www.w3.org/1999/xlink" xmlns:svgjs="http://svgjs.dev/svgjs" width="1440" height="560" preserveAspectRatio="none" viewBox="0 0 1440 560">
    <g mask="url(&quot;#SvgjsMask1012&quot;)" fill="none">
        <rect width="1440" height="560" x="0" y="0" fill="rgba(247, 210, 141, 1)"></rect>
        <path d="M 0,92 C 57.6,103.4 172.8,150.2 288,149 C 403.2,147.8 460.8,87.6 576,86 C 691.2,84.4 748.8,154.2 864,141 C 979.2,127.8 1036.8,14.6 1152,20 C 1267.2,25.4 1382.4,138.4 1440,168L1440 560L0 560z" fill="rgba(255, 255, 255, 1)"></path>
        <path d="M 0,424 C 96,407.2 288,325 480,340 C 672,355 768,491.2 960,499 C 1152,506.8 1344,403 1440,379L1440 560L0 560z" fill="rgba(237, 238, 240, 1)"></path>
    </g>
    <defs>
        <mask id="SvgjsMask1012">
            <rect width="1440" height="560" fill="#ffffff"></rect>
        </mask>
    </defs>
</svg>